<?xml version="1.0" encoding="utf-8"?>
<!-- Generator: Adobe Illustrator 18.1.0, SVG Export Plug-In . SVG Version: 6.00 Build 0)  -->
<!DOCTYPE svg PUBLIC "-//W3C//DTD SVG 1.1//EN" "http://www.w3.org/Graphics/SVG/1.1/DTD/svg11.dtd">
<svg version="1.1" id="Layer_1" xmlns="http://www.w3.org/2000/svg" xmlns:xlink="http://www.w3.org/1999/xlink" x="0px" y="0px"
	 viewBox="0 0 13 11.8" enable-background="new 0 0 13 11.8" xml:space="preserve">
<path fill="#FFFFFF" d="M13,3.2c-0.5,0.2-1,0.3-1.5,0.4c0.5-0.3,1-0.8,1.2-1.4c-0.5,0.3-1.1,0.5-1.7,0.6C10.5,2.3,9.8,2,9,2
	C7.5,2,6.3,3.1,6.3,4.5c0,0.2,0,0.4,0.1,0.6C4.2,4.9,2.2,3.9,0.9,2.5C0.7,2.8,0.5,3.2,0.5,3.7c0,0.9,0.5,1.6,1.2,2.1
	c-0.4,0-0.2-0.1-1.2-0.3v0c0,1.2,0.9,2.2,2.1,2.4C2.4,7.9,2.2,8,2,8c-0.2,0-0.3,0-0.5,0c0.3,1,1.3,1.7,2.5,1.7
	c-0.9,0.7-2.1,1.1-3.3,1.1c-0.2,0-0.4,0-0.6,0c1.2,0.7,2.6,1.1,4.1,1.1c4.9,0,7.6-3.8,7.6-7l0-0.3C12.2,4.1,12.6,3.6,13,3.2z"/>
<path fill="#008CC2" d="M13,1.2c-0.5,0.2-1,0.3-1.5,0.4c0.5-0.3,1-0.8,1.2-1.4c-0.5,0.3-1.1,0.5-1.7,0.6C10.5,0.3,9.8,0,9,0
	C7.5,0,6.3,1.1,6.3,2.5c0,0.2,0,0.4,0.1,0.6C4.2,2.9,2.2,1.9,0.9,0.5C0.7,0.8,0.5,1.2,0.5,1.7c0,0.9,0.5,1.6,1.2,2.1
	c-0.4,0-0.2-0.1-1.2-0.3v0c0,1.2,0.9,2.2,2.1,2.4C2.4,5.9,2.2,6,2,6c-0.2,0-0.3,0-0.5,0c0.3,1,1.3,1.7,2.5,1.7
	C3,8.3,1.9,8.7,0.6,8.7c-0.2,0-0.4,0-0.6,0c1.2,0.7,2.6,1.1,4.1,1.1c4.9,0,7.6-3.8,7.6-7l0-0.3C12.2,2.1,12.6,1.6,13,1.2z"/>
<path fill="#00ABEC" d="M13,2.2c-0.5,0.2-1,0.3-1.5,0.4c0.5-0.3,1-0.8,1.2-1.4c-0.5,0.3-1.1,0.5-1.7,0.6C10.5,1.3,9.8,1,9,1
	C7.5,1,6.3,2.1,6.3,3.5c0,0.2,0,0.4,0.1,0.6C4.2,3.9,2.2,2.9,0.9,1.5C0.7,1.8,0.5,2.2,0.5,2.7c0,0.9,0.5,1.6,1.2,2.1
	c-0.4,0-0.2-0.1-1.2-0.3v0c0,1.2,0.9,2.2,2.1,2.4C2.4,6.9,2.2,7,2,7c-0.2,0-0.3,0-0.5,0c0.3,1,1.3,1.7,2.5,1.7
	C3,9.3,1.9,9.7,0.6,9.7c-0.2,0-0.4,0-0.6,0c1.2,0.7,2.6,1.1,4.1,1.1c4.9,0,7.6-3.8,7.6-7l0-0.3C12.2,3.1,12.6,2.6,13,2.2z"/>
<g>
</g>
<g>
</g>
<g>
</g>
<g>
</g>
<g>
</g>
<g>
</g>
<g>
</g>
<g>
</g>
<g>
</g>
<g>
</g>
<g>
</g>
<g>
</g>
<g>
</g>
<g>
</g>
<g>
</g>
<g>
</g>
</svg>
