<?xml version="1.0" encoding="utf-8"?>
<!-- Generator: Adobe Illustrator 18.1.1, SVG Export Plug-In . SVG Version: 6.00 Build 0)  -->
<!DOCTYPE svg PUBLIC "-//W3C//DTD SVG 1.1//EN" "http://www.w3.org/Graphics/SVG/1.1/DTD/svg11.dtd">
<svg version="1.1" id="Layer_1" xmlns="http://www.w3.org/2000/svg" xmlns:xlink="http://www.w3.org/1999/xlink" x="0px" y="0px"
	 width="21px" height="13px" viewBox="0 0 21 13" enable-background="new 0 0 21 13" xml:space="preserve">
<rect opacity="0" fill="#FFFFFF" width="21" height="13"/>
<path fill="#DC4A3B" d="M6.2,6.9L5.6,6.5C5.4,6.3,5.2,6.1,5.2,5.8c0-0.3,0.2-0.6,0.4-0.8C6.3,4.5,6.9,4,6.9,2.8
	c0-1.2-0.7-1.8-1.1-2.1h1l1-0.6H4.7c-0.8,0-2.1,0.2-3,0.9c-0.7,0.6-1,1.4-1,2.1c0,1.2,0.9,2.5,2.6,2.5c0.2,0,0.3,0,0.5,0
	C3.8,5.7,3.7,5.9,3.7,6.1c0,0.5,0.2,0.8,0.5,1.1c-0.7,0-2,0.1-3,0.7C0.3,8.5,0,9.3,0,9.8c0,1.2,1.1,2.2,3.4,2.2c2.7,0,4.1-1.5,4.1-3
	C7.5,8,6.8,7.5,6.2,6.9z M4.1,5.1c-1.3,0-2-1.7-2-2.8c0-0.4,0.1-0.8,0.3-1.2c0.3-0.3,0.7-0.5,1.1-0.5c1.3,0,2,1.8,2,2.9
	c0,0.3,0,0.8-0.4,1.1C4.9,4.9,4.5,5.1,4.1,5.1z M4.1,11.4c-1.7,0-2.7-0.8-2.7-1.9c0-1.1,1-1.5,1.3-1.6c0.7-0.2,1.5-0.3,1.6-0.3
	c0.2,0,0.2,0,0.4,0c1.2,0.8,1.7,1.3,1.7,2.1C6.4,10.7,5.6,11.4,4.1,11.4z"/>
<polygon fill="#DC4A3B" points="15,5 13,5 13,3 12,3 12,5 10,5 10,6 12,6 12,8 13,8 13,6 15,6 "/>
<g>
	<path fill="#DC4A3B" d="M19.2,10H18V2.3L16.6,3V2.1L19,1h0.2V10z"/>
</g>
<g>
</g>
<g>
</g>
<g>
</g>
<g>
</g>
<g>
</g>
<g>
</g>
<g>
</g>
<g>
</g>
<g>
</g>
<g>
</g>
<g>
</g>
<g>
</g>
<g>
</g>
<g>
</g>
<g>
</g>
</svg>
