<?xml version="1.0" encoding="iso-8859-1"?>
<!-- Generator: Adobe Illustrator 19.1.0, SVG Export Plug-In . SVG Version: 6.00 Build 0)  -->
<svg version="1.1" id="g-plus" xmlns="http://www.w3.org/2000/svg" xmlns:xlink="http://www.w3.org/1999/xlink" x="0px" y="0px"
	 width="19px" height="14px" viewBox="0 0 19 14" style="enable-background:new 0 0 19 14;" xml:space="preserve">
<rect style="opacity:0;fill:#FFFFFF;" width="19" height="14"/>
<path style="fill:#DA433A;" d="M11.373,6.163L6,6.159V8h3.384c-0.34,2-1.417,2.331-2.907,2.331c-1.812,0-3.286-1.414-3.286-3.239
	c0-1.825,1.474-3.274,3.286-3.274c0.809,0,1.551,0.314,2.124,0.805l1.58-1.52c-0.975-0.9-2.276-1.445-3.704-1.445
	C3.452,1.659,1,4.124,1,7.161c0,3.038,2.333,5.501,5.358,5.501C9.567,12.662,11.853,10.404,11.373,6.163z"/>
<rect x="13.1" y="6.05" style="fill:#DA433A;" width="5" height="1.1"/>
<rect x="15.05" y="4.1" style="fill:#DA433A;" width="1.1" height="5"/>
</svg>
