<?xml version="1.0" encoding="utf-8"?>
<!-- Generator: Adobe Illustrator 18.1.1, SVG Export Plug-In . SVG Version: 6.00 Build 0)  -->
<svg version="1.1" id="Layer_1" xmlns="http://www.w3.org/2000/svg" xmlns:xlink="http://www.w3.org/1999/xlink" x="0px" y="0px"
	 width="17px" height="17px" viewBox="0 0 17 17" enable-background="new 0 0 17 17" xml:space="preserve">
<path fill="#FFFFFF" d="M9,16v-5c0-1.3,0.6-2.3,2.2-2.3c1.6,0,1.8,1.1,1.8,2.3v5h3v-5.2C16,8.1,15.1,6,12,6C10.5,6,9.4,6.8,9,7.6h0
	V6H6v10H9z"/>
<path fill="#FFFFFF" d="M2.5,1c-1,0-1.9,0.8-1.9,1.9c0,1,0.8,1.9,1.9,1.9c1,0,1.9-0.8,1.9-1.9C4.4,1.8,3.5,1,2.5,1z"/>
<rect x="1" y="6" fill="#FFFFFF" width="3" height="10"/>
<rect opacity="0" fill="#FFFFFF" width="17" height="17"/>
<g>
</g>
<g>
</g>
<g>
</g>
<g>
</g>
<g>
</g>
<g>
</g>
<g>
</g>
<g>
</g>
<g>
</g>
<g>
</g>
<g>
</g>
<g>
</g>
<g>
</g>
<g>
</g>
<g>
</g>
</svg>
